<?xml version="1.0" encoding="UTF-8" standalone="no"?>
<svg
   xmlns:dc="http://purl.org/dc/elements/1.1/"
   xmlns:cc="http://creativecommons.org/ns#"
   xmlns:rdf="http://www.w3.org/1999/02/22-rdf-syntax-ns#"
   xmlns:svg="http://www.w3.org/2000/svg"
   xmlns="http://www.w3.org/2000/svg"
   xmlns:sodipodi="http://sodipodi.sourceforge.net/DTD/sodipodi-0.dtd"
   xmlns:inkscape="http://www.inkscape.org/namespaces/inkscape"
   id="svg2"
   height="52.444489"
   width="370.20474"
   version="1.1"
   viewBox="0 0 370.20001 52.44277"
   inkscape:version="0.91 r13725"
   sodipodi:docname="hex_art.svg">
  <metadata
     id="metadata3432">
    <rdf:RDF>
      <cc:Work
         rdf:about="">
        <dc:format>image/svg+xml</dc:format>
        <dc:type
           rdf:resource="http://purl.org/dc/dcmitype/StillImage" />
        <dc:title></dc:title>
      </cc:Work>
    </rdf:RDF>
  </metadata>
  <defs
     id="defs3430" />
  <sodipodi:namedview
     pagecolor="#ffffff"
     bordercolor="#666666"
     borderopacity="1"
     objecttolerance="10"
     gridtolerance="10"
     guidetolerance="10"
     inkscape:pageopacity="0"
     inkscape:pageshadow="2"
     inkscape:window-width="1438"
     inkscape:window-height="779"
     id="namedview3428"
     showgrid="false"
     inkscape:zoom="39.790005"
     inkscape:cx="373.8027"
     inkscape:cy="15.783776"
     inkscape:window-x="0"
     inkscape:window-y="0"
     inkscape:window-maximized="0"
     inkscape:current-layer="svg2"
     units="px" />
  <g
     id="layer1"
     transform="translate(-336.29,-571.49)">
    <g
       id="g3402"
       transform="translate(-244.68,-277.79)">
      <g
         id="g3415"
         style="fill:#45658b">
        <path
           id="path3369"
           d="m 727.04,900.08 c -1.485,-0.89199 -3.2738,-1.9014 -3.975,-2.243 l -1.275,-0.62121 0,-5.0894 0,-5.0894 1.575,-1.0059 c 3.9636,-2.5315 6.6128,-3.8576 7.3929,-3.7006 0.43016,0.0866 2.5034,1.1869 4.6071,2.4451 l 3.825,2.2877 0,4.9025 0,4.9025 -1.425,0.90399 c -0.78375,0.4972 -1.8975,1.1642 -2.475,1.4823 -0.5775,0.31806 -1.819,1.0053 -2.7588,1.5273 -0.93983,0.52196 -1.9523,0.94249 -2.25,0.93452 -0.29767,-0.008 -1.7562,-0.7443 -3.2412,-1.6363 z"
           inkscape:connector-curvature="0" />
        <path
           id="path3361"
           d="m 612.05,885.91 c -0.7425,-0.42919 -1.9154,-1.0834 -2.6065,-1.4538 -0.6911,-0.37037 -1.6569,-0.9585 -2.1463,-1.307 -0.48937,-0.34846 -0.99211,-0.63357 -1.1172,-0.63357 -0.12508,0 -0.84674,-0.39258 -1.6037,-0.87241 -0.75694,-0.47982 -1.9838,-1.209 -2.7263,-1.6205 l -1.35,-0.7481 -0.0801,-7.7176 c -0.0548,-5.2765 0.0241,-7.8432 0.24939,-8.1146 0.2931,-0.35317 0.95102,-0.75425 4.6862,-2.8568 0.52549,-0.2958 1.5016,-0.88256 2.169,-1.3039 0.66749,-0.42136 1.2865,-0.76611 1.3755,-0.76611 0.0891,0 0.70805,-0.34475 1.3755,-0.76611 2.0783,-1.312 3.276,-1.9339 3.7245,-1.9339 0.44105,0 1.6179,0.60725 3.6554,1.8862 1.1958,0.75061 2.8159,1.6709 6.0946,3.4619 1.0725,0.58587 2.3888,1.3932 2.925,1.7942 l 0.975,0.72896 0,7.7324 0,7.7324 -2.325,1.3346 c -1.2788,0.73404 -4.215,2.4355 -6.525,3.781 -2.31,1.3455 -4.47,2.4411 -4.8,2.4347 -0.33,-0.006 -1.2075,-0.36279 -1.95,-0.79199 z"
           inkscape:connector-curvature="0" />
        <path
           id="path3359"
           d="m 713.57,886.68 c -0.4125,-0.2392 -2.016,-1.1806 -3.5633,-2.092 -1.5473,-0.9114 -2.8855,-1.6571 -2.9737,-1.6571 -0.0882,0 -0.77973,-0.39258 -1.5367,-0.87241 -0.75695,-0.47982 -1.9838,-1.209 -2.7263,-1.6205 l -1.35,-0.7481 -0.0801,-7.7176 c -0.0548,-5.2765 0.0241,-7.8432 0.24939,-8.1146 0.29311,-0.35317 0.95103,-0.75425 4.6862,-2.8568 0.52549,-0.2958 1.5016,-0.88256 2.169,-1.3039 0.66748,-0.42136 1.2865,-0.76611 1.3755,-0.76611 0.0891,0 0.70805,-0.34475 1.3755,-0.76611 2.0783,-1.312 3.276,-1.9339 3.7245,-1.9339 0.44105,0 1.6179,0.60725 3.6554,1.8862 1.1958,0.75061 2.8159,1.6709 6.0946,3.4619 1.0725,0.58587 2.3888,1.3932 2.925,1.7942 l 0.975,0.72896 0,7.7324 0,7.7324 -2.325,1.3346 c -1.2788,0.73404 -4.215,2.4355 -6.525,3.781 -2.31,1.3455 -4.47,2.4432 -4.8,2.4394 -0.33,-0.004 -0.9375,-0.20265 -1.35,-0.44185 z"
           inkscape:connector-curvature="0" />
        <path
           id="path3357"
           d="m 848.63,886.55 c -0.4125,-0.2392 -2.016,-1.1806 -3.5633,-2.092 -1.5473,-0.9114 -2.8855,-1.6571 -2.9737,-1.6571 -0.0882,0 -0.77972,-0.39258 -1.5367,-0.87241 -0.75694,-0.47982 -1.9838,-1.209 -2.7263,-1.6205 l -1.35,-0.7481 -0.0802,-7.7176 c -0.0548,-5.2765 0.0241,-7.8432 0.24939,-8.1146 0.29311,-0.35317 0.95103,-0.75425 4.6862,-2.8568 0.52549,-0.2958 1.5016,-0.88256 2.169,-1.3039 0.66748,-0.42136 1.2865,-0.76611 1.3755,-0.76611 0.0891,0 0.70804,-0.34475 1.3755,-0.76611 2.0783,-1.312 3.276,-1.9339 3.7245,-1.9339 0.44105,0 1.6179,0.60725 3.6554,1.8862 1.1958,0.75061 2.8159,1.6709 6.0946,3.4619 1.0725,0.58587 2.3888,1.3932 2.925,1.7942 l 0.975,0.72896 0,7.7324 0,7.7324 -2.325,1.3346 c -1.2788,0.73404 -4.215,2.4355 -6.525,3.781 -2.31,1.3455 -4.47,2.4432 -4.8,2.4394 -0.33,-0.004 -0.9375,-0.20265 -1.35,-0.44185 z"
           inkscape:connector-curvature="0" />
      </g>
      <g
         id="g3421"
         style="fill:#254567">
        <path
           id="path3381"
           d="m 594.37,898.17 -3.675,-2.1175 0,-4.8546 0,-4.8546 1.575,-0.91941 c 4.9986,-2.9179 5.9449,-3.4059 6.5774,-3.3914 0.38365,0.009 2.3176,0.99584 4.2976,2.1934 l 3.6,2.1774 0.0826,4.7054 0.0826,4.7054 -1.5826,1.0001 c -2.7963,1.7671 -6.1401,3.5026 -6.7195,3.4876 -0.30969,-0.008 -2.2168,-0.96743 -4.2381,-2.132 z"
           inkscape:connector-curvature="0" />
        <path
           id="path3379"
           d="m 793.92,899.46 -3.675,-2.1175 0,-4.8546 0,-4.8546 1.575,-0.91941 c 4.9986,-2.9179 5.9449,-3.4059 6.5774,-3.3914 0.38366,0.009 2.3176,0.99584 4.2976,2.1934 l 3.6,2.1774 0.0826,4.7054 0.0826,4.7054 -1.5826,1.0001 c -2.7963,1.7671 -6.1402,3.5026 -6.7196,3.4876 -0.30968,-0.008 -2.2168,-0.96743 -4.2381,-2.132 z"
           inkscape:connector-curvature="0" />
        <path
           id="path3377"
           d="m 830.71,898.68 -3.675,-2.1312 0,-4.8486 0,-4.8486 1.575,-0.91941 c 4.9986,-2.9179 5.9449,-3.4059 6.5774,-3.3914 0.38365,0.009 2.3176,0.99585 4.2976,2.1934 l 3.6,2.1774 0.0785,4.7816 0.0785,4.7816 -3.7972,2.175 c -2.0884,1.1962 -4.0813,2.172 -4.4285,2.1682 -0.34724,-0.004 -2.2851,-0.96581 -4.3063,-2.138 z"
           inkscape:connector-curvature="0" />
        <path
           id="path3375"
           d="m 813.01,887.79 c -1.316,-0.76091 -3.3377,-1.917 -4.4927,-2.5691 -1.155,-0.6521 -2.775,-1.6014 -3.6,-2.1095 -0.825,-0.50811 -2.1075,-1.2451 -2.85,-1.6378 -0.7425,-0.39266 -1.7044,-0.99461 -2.1376,-1.3377 l -0.78754,-0.62374 -1.4172,0.62691 c -1.4161,0.6264 -6.2601,3.3946 -8.2738,4.7282 -0.58637,0.38834 -1.171,0.70607 -1.2992,0.70607 -0.12817,0 -0.93091,0.44269 -1.7839,0.98375 -2.4734,1.5689 -3.395,2.0162 -4.1544,2.0162 -0.39103,0 -1.7877,-0.62256 -3.1037,-1.3835 -1.316,-0.76091 -3.3377,-1.9181 -4.4927,-2.5716 -1.155,-0.65347 -2.9775,-1.7177 -4.05,-2.3649 -1.0725,-0.64723 -2.5144,-1.455 -3.2042,-1.7951 l -1.2542,-0.61833 -1.2958,0.65091 c -1.565,0.78613 -6.5821,3.6964 -8.0619,4.6764 -0.58637,0.38834 -1.171,0.70607 -1.2992,0.70607 -0.12817,0 -0.93091,0.44269 -1.7839,0.98375 -2.481,1.5738 -3.3967,2.0169 -4.1471,2.0068 -0.80291,-0.0108 -1.3455,-0.30186 -13.904,-7.4581 l -3,-1.7095 -0.15,-9.0469 c -0.0904,-5.451 -0.26924,-9.1548 -0.45,-9.3185 -0.165,-0.14938 -0.9075,-0.59039 -1.65,-0.98003 -0.7425,-0.38964 -1.5525,-0.86654 -1.8,-1.0598 -0.2475,-0.19323 -2.0025,-1.2217 -3.9,-2.2854 -4.1783,-2.3424 -5.0342,-2.8361 -7.35,-4.2397 -0.99,-0.60006 -2.0025,-1.0914 -2.25,-1.0918 -0.45548,-7.8e-4 -3.0064,1.383 -9.9995,5.4245 -2.1172,1.2236 -4.5322,2.6127 -5.3664,3.0868 l -1.5169,0.86209 -1.8336,-0.9534 c -2.6943,-1.401 -8.0155,-4.4461 -8.9056,-5.0964 -1.2502,-0.91338 -5.8383,-3.3244 -6.3262,-3.3244 -0.2469,0 -1.0458,0.38251 -1.7754,0.85002 -0.72953,0.4675 -4.4989,2.6476 -8.3764,4.8446 -3.8775,2.197 -7.1492,4.1433 -7.2704,4.325 -0.12123,0.1817 -0.22248,4.2682 -0.225,9.0811 l -0.005,8.7507 -2.475,1.3803 c -1.3612,0.75918 -3.3525,1.9095 -4.425,2.5562 -1.0725,0.64674 -2.625,1.5322 -3.45,1.9677 -0.825,0.43546 -1.7025,0.96125 -1.95,1.1684 -0.81595,0.683 -3.0062,1.6759 -3.6968,1.6759 -0.37309,0 -1.8877,-0.6991 -3.3658,-1.5536 -1.4781,-0.85444 -3.5249,-2.0357 -4.5484,-2.625 -1.0236,-0.5893 -2.7786,-1.6074 -3.9,-2.2624 -1.1214,-0.65504 -2.444,-1.3975 -2.939,-1.65 l -0.9,-0.45902 -0.15,-9.0505 c -0.0825,-4.9778 -0.25297,-9.1532 -0.37883,-9.2788 -0.12586,-0.12561 -1.0293,-0.6429 -2.0077,-1.1495 -0.97838,-0.50665 -3.1462,-1.7104 -4.8174,-2.675 -1.6712,-0.96459 -3.3346,-1.9096 -3.6965,-2.1 -0.36189,-0.1904 -1.0611,-0.62646 -1.5538,-0.96902 -1.3401,-0.93179 -4.9142,-2.8272 -5.3311,-2.8272 -0.37535,0 -3.199,1.545 -9.9154,5.4253 -2.1179,1.2236 -4.4738,2.5821 -5.2352,3.0189 -0.76144,0.43677 -1.4828,1.0443 -1.6031,1.35 -0.12027,0.30573 -0.22816,4.5024 -0.23975,9.3258 l -0.0211,8.7699 -1.425,0.7487 c -0.78375,0.41178 -2.775,1.5581 -4.425,2.5474 -1.65,0.98929 -3.7425,2.2146 -4.65,2.723 -0.9075,0.50838 -2.3179,1.3004 -3.1341,1.7601 -0.81627,0.45965 -3.82056,2.26396 -3.82056,2.26396 0,0 0,-2.88076 0,-20.53266 l 0,-19.8 186.65498,0 187.63825,-0.0251 0,19.97513 0,20.70752 c 0,0 -4.117,-1.85484 -5.31325,-2.529 -2.0929,-1.1794 -4.7991,-2.7407 -9.1336,-5.2696 -1.1228,-0.65504 -2.4464,-1.3975 -2.9414,-1.65 l -0.9,-0.45902 -0.15,-9.2752 c -0.0933,-5.7682 -0.26343,-9.3179 -0.45,-9.388 -0.165,-0.062 -1.245,-0.63885 -2.4,-1.2818 -1.155,-0.64295 -2.775,-1.5327 -3.6,-1.9773 -0.825,-0.44454 -3.12,-1.7829 -5.1,-2.9742 -4.0564,-2.4405 -5.9587,-3.4535 -6.4852,-3.4535 -0.19752,0 -1.7891,0.837 -3.5369,1.86 -1.7478,1.023 -4.5278,2.623 -6.1778,3.5556 -1.65,0.93262 -3.8763,2.1992 -4.9474,2.8146 l -1.9474,1.119 -1.3526,-0.64984 c -0.74397,-0.35741 -1.9601,-1.0225 -2.7026,-1.478 -1.2366,-0.75859 -3.026,-1.7948 -9.9863,-5.7831 -1.355,-0.77645 -2.6525,-1.4177 -2.8833,-1.425 -0.37329,-0.0118 -3.7687,1.7948 -6.4592,3.4367 -1.1722,0.71535 -6.0583,3.4915 -8.6511,4.9153 l -1.8489,1.0153 -1.3606,-0.69695 c -0.74832,-0.38333 -1.5631,-0.85903 -1.8106,-1.0571 -0.2475,-0.1981 -2.0025,-1.2305 -3.9,-2.2943 -1.8975,-1.0637 -3.99,-2.251 -4.65,-2.6382 -2.7315,-1.6028 -4.8253,-2.6808 -5.2196,-2.6872 -0.37409,-0.006 -3.7587,1.8111 -6.4202,3.4354 -1.0374,0.63312 -5.6329,3.2506 -8.5122,4.8484 -1.2049,0.66861 -2.5696,0.86834 -2.8544,1.0674 0.006,0.23739 -0.003,0.20391 -0.008,0.32542 -0.008,0.20381 -5.1e-4,0.13861 -0.007,0.2484 -7e-5,0.49583 0.13522,3.9554 0.11059,9.7038 l -0.0391,9.1158 -2.475,1.3803 c -1.3612,0.75918 -3.3525,1.9095 -4.425,2.5562 -1.0725,0.64674 -2.625,1.5322 -3.45,1.9677 -0.825,0.43546 -1.7025,0.96125 -1.95,1.1684 -0.81335,0.68082 -3.0052,1.6759 -3.6915,1.6759 -0.37016,0 -1.7498,-0.62256 -3.0658,-1.3835 z"
           inkscape:connector-curvature="0"
           sodipodi:nodetypes="csscsccsssscccccscscsscscsccccssccsscscccccccscccccsccsccssccscsscccscccccccccscsccsssccccccssccccccsccccscccccscc" />
        <path
           id="path3349"
           d="m 878.72,883.27 c -2.475,-1.4265 -5.2425,-3.0166 -6.15,-3.5335 l -1.65,-0.93984 -0.08,-7.6668 -0.08,-7.6668 4.58,-2.643 c 2.519,-1.4536 5.3251,-3.0941 6.2359,-3.6455 0.91077,-0.55138 1.9306,-1.0025 2.2663,-1.0025 0.3357,0 1.234,0.39551 1.9963,0.8789 0.76221,0.4834 3.1174,1.8537 5.2337,3.0452 2.1163,1.1914 4.2874,2.4497 4.8245,2.7961 l 0.97668,0.62985 -0.0767,7.6115 -0.0767,7.6115 -1.95,1.1199 c -1.0725,0.61593 -3.84,2.219 -6.15,3.5625 -2.31,1.3434 -4.47,2.4412 -4.8,2.4394 -0.33,-0.002 -2.625,-1.1703 -5.1,-2.5968 z"
           inkscape:connector-curvature="0" />
      </g>
    </g>
  </g>
</svg>
